<mxfile host="app.diagrams.net" modified="2023-06-26T00:09:28.816Z" agent="Mozilla/5.0 (Windows NT 10.0; Win64; x64) AppleWebKit/537.36 (KHTML, like Gecko) Chrome/114.0.0.0 Safari/537.36" version="21.4.0" etag="ewwGkdH18jay8g_7FC1r" type="github">
  <diagram name="PÃ¡gina-1" id="rorG38zTEEyN32rFqgWu">
    <mxGraphModel>
      <root>
        <mxCell id="0" />
        <mxCell id="1" parent="0" />
      </root>
    </mxGraphModel>
  </diagram>
</mxfile>
